<?xml version="1.0" encoding="utf-8"?>
<!-- Generator: Adobe Illustrator 23.0.1, SVG Export Plug-In . SVG Version: 6.00 Build 0)  -->
<svg version="1.1" id="Layer_2" xmlns="http://www.w3.org/2000/svg" xmlns:xlink="http://www.w3.org/1999/xlink" x="0px" y="0px"
	 viewBox="0 0 416.5 82.2" style="enable-background:new 0 0 416.5 82.2;" xml:space="preserve">
<style type="text/css">
	.st0{display:none;clip-path:url(#SVGID_2_);fill:#F18A00;}
	.st1{clip-path:url(#SVGID_2_);fill:#F18A00;}
	.st2{fill:#FFFFFF;}
	.st3{fill:#035E83;}
	.st4{fill:#F18A00;}
	.st5{fill:none;stroke:#F18A00;stroke-width:3;stroke-miterlimit:10;}
</style>
<g>
	<g>
		<defs>
			<rect id="SVGID_1_" x="-33" y="0" width="368.2" height="108.5"/>
		</defs>
		<clipPath id="SVGID_2_">
			<use xlink:href="#SVGID_1_"  style="overflow:visible;"/>
		</clipPath>
		<path class="st0" d="M284.9,58.6c0.3,1.7,2.2,2.3,3.7,2.3c1.3,0,3-0.5,3-2c0-1.3-1.3-1.7-2.4-1.9l-2-0.4c-1.9-0.4-3.6-1.2-3.6-3.4
			c0-2.5,2.3-3.6,4.6-3.6c2.2,0,4.3,0.8,4.9,3.1l-1.7,0.4c-0.5-1.4-1.7-1.9-3.2-1.9c-1.1,0-2.6,0.4-2.6,1.8c0,1.3,1.1,1.6,2.2,1.8
			l1.8,0.3c0.9,0.2,1.8,0.3,2.6,0.9c1,0.7,1.5,1.7,1.5,2.8c0,2.8-2.7,3.8-5.1,3.8c-2.4,0-4.8-1-5.4-3.5L284.9,58.6z"/>
		<path class="st1" d="M82.2,40.9c0,22.7-18.4,41-41,41c-22.7,0-41-18.4-41-41c0-22.7,18.4-41,41-41C63.8-0.1,82.2,18.3,82.2,40.9"
			/>
	</g>
	<path class="st2" d="M60.2,47.8c-7.1,0.2-11.5-3.9-13.5-6.7c-0.1-0.1-0.1-0.1-0.1-0.2c0.1-0.1,0.1-0.1,0.2-0.2
		c2-2.8,6.4-6.8,13.5-6.7c3.4,0.3,5.9-0.9,6.7-3.8c0.8-2.9-0.9-5.9-3.8-6.7c-2.9-0.8-5.5,0.7-6.7,3.8c-1.4,3.7-6.7,7.4-12.7,8.3
		c-2.7-8.4,1.1-12.2,2.1-15.9c0.9-2.4,0.4-4.5-1-6.2c-0.8-1-2.1-1.5-3.4-1.6v0c-0.1,0-0.2,0-0.3,0h-0.2v0c-1.3,0.1-2.5,0.6-3.3,1.6
		c-1.4,1.7-1.9,3.8-1,6.2c0.9,3.7,4.7,7.5,2.1,15.9c-6-0.9-11.3-4.7-12.7-8.3c-1.2-3.2-3.8-4.6-6.7-3.8c-2.9,0.8-4.6,3.8-3.8,6.7
		c0.8,2.9,3.3,4.2,6.7,3.8c7.1-0.2,11.5,3.9,13.5,6.7c0.1,0.1,0.1,0.1,0.1,0.2c0,0.1-0.1,0.1-0.1,0.2c-2,2.7-6.4,6.8-13.5,6.7
		c-3.4-0.3-5.9,0.9-6.7,3.8c-0.8,2.9,0.9,5.9,3.8,6.7c2.9,0.8,5.5-0.7,6.7-3.8c1.4-3.7,6.7-7.4,12.7-8.3c2.7,8.4-1.1,12.2-2.1,15.9
		c-0.9,2.4-0.4,4.5,1,6.2c0.8,1,2.1,1.5,3.3,1.6v0c0.1,0,0.2,0,0.3,0c0.1,0,0.1,0,0.2,0v0c1.3-0.1,2.5-0.6,3.4-1.6
		c1.4-1.7,1.9-3.8,1-6.2c-0.9-3.7-4.7-7.5-2.1-15.9c6,0.9,11.3,4.7,12.7,8.3c1.2,3.2,3.8,4.6,6.7,3.8c2.9-0.8,4.6-3.8,3.8-6.7
		C66.1,48.8,63.6,47.5,60.2,47.8"/>
</g>
<g>
	<path class="st3" d="M110.3,15.6c6.5,0,9.1,2.2,9.1,8v13.9h-5.8V24.4c0-3-0.5-3.9-3.8-3.9h-4.6v17.1h-5.8V15.6H110.3z"/>
	<path class="st3" d="M213.9,15.6c6.3,0,9.1,2.2,9.1,8v13.9h-5.8V24.4c0-3.2-0.7-3.9-3.7-3.9h-3.2v17.1h-5.9V20.4h-6.8v17.1h-5.8
		V15.6H213.9z"/>
	<path class="st3" d="M144.8,37.5V15.6h5.8v17.1h6.8V15.6h5.9v17.1h3.2c3.1,0,3.7-0.8,3.7-3.9V15.6h5.8v13.9c0,5.8-2.8,8-9.1,8
		H144.8z"/>
	<path class="st3" d="M226.3,7.7h6.1v5.4h-6.1V7.7z M226.3,15.6h6.1v21.9h-6.1V15.6z"/>
	<path class="st3" d="M246.5,15.6c6.5,0,9.1,2.2,9.1,8v13.9h-5.8V24.4c0-3-0.5-3.9-3.8-3.9h-4.6v17.1h-5.8V15.6H246.5z"/>
	<path class="st3" d="M268.6,37.5c-6.8,0-10.7-4.2-10.7-11.2c0-2.9,0.8-5.3,2.4-7.3c2.1-2.6,4.7-3.4,8.7-3.4h4.9V7.7h5.8v29.8H268.6
		z M273.9,20.4h-3.5c-4.5,0-6.4,1.6-6.4,6.3c0,4.6,1.7,6.1,6,6.1h3.9V20.4z"/>
	<path class="st3" d="M142.2,25.3c0,2.9-1.2,3.6-4,3.6h-9.6c0.1,3.6,1.2,4.1,4.9,4.1h7.3v4.6h-8c-7.3,0-10.7-3.7-10.7-10.9
		c0-7.1,3.5-11,10.8-11c5.6,0,9.4,3.4,9.4,8.7V25.3z M136.7,24.3c0-3.4-1.8-4.1-4-4.1c-2.5,0-4.1,0.6-4.2,4.1H136.7z"/>
	<path class="st4" d="M113.9,68.2c-1,3-3.9,4.8-7,4.8c-5,0-7.5-4-7.5-8.5c0-4.5,2.7-8.6,7.6-8.6c5.1,0,7.3,4.3,7.2,8.8h-11.9
		c0,1.3,0.1,2.5,0.7,3.7c0.8,1.6,2.5,2.5,4.2,2.5c2.1,0,3.7-1.2,4.4-3.2L113.9,68.2z M111.4,62.8c0-2.7-1.5-5-4.4-5
		c-2.8,0-4.5,2.4-4.6,5H111.4z"/>
	<rect x="115.7" y="63.4" class="st4" width="6.9" height="2"/>
	<path class="st4" d="M132.9,72.8l-2.4,0.2c-3.6,0-4.7-2.1-4.7-5.4v-9.5h-2.9v-2h2.9V52l2.5-0.3v4.3h3.7v2h-3.7v9.9
		c0,1.9,0.5,2.9,2.6,2.9l1.9-0.2V72.8z"/>
	<path class="st4" d="M142,55.8c4.8,0,7.2,4.2,7.2,8.5c0,4.6-2.7,8.6-7.6,8.6c-4.9,0-7.1-4.3-7.1-8.7
		C134.5,59.8,137.1,55.8,142,55.8 M138.3,68.8c0.7,1.3,2.1,2.1,3.6,2.1c1.7,0,3-0.9,3.8-2.4c0.7-1.3,0.8-2.8,0.8-4.2
		c0-1.6-0.2-3.2-1-4.5c-0.8-1.2-2.1-1.9-3.6-1.9c-1.6,0-3,0.9-3.7,2.3c-0.6,1.2-0.8,2.8-0.8,4.1C137.3,65.8,137.5,67.5,138.3,68.8"
		/>
	<path class="st4" d="M165.8,72.7h-2.3v-3.3h-0.1c-0.8,2-2.8,3.6-5.1,3.6c-1.6,0-3.2-0.6-4.2-1.8c-1.1-1.4-1.3-3.2-1.3-4.9v-10h2.5
		v10c0,0.9,0.1,2.2,0.5,3c0.5,0.9,1.6,1.6,2.7,1.6c1.4,0,2.5-0.6,3.4-1.7c1-1.2,1.3-2.6,1.3-4.1v-8.7h2.5V72.7z"/>
	<path class="st4" d="M172.7,56.2v3.9h0.1c0.8-2.2,2.2-4.3,4.8-4.3l0.9,0.1v2.4H178c-1.9,0-3.3,0.9-4.2,2.6
		c-0.7,1.2-0.8,2.2-0.8,3.5v8.3h-2.5V56.2H172.7z"/>
	<path class="st4" d="M183.7,53.3H181v-2.8h2.8V53.3z M183.6,72.7h-2.5V56.2h2.5V72.7z"/>
	<path class="st4" d="M190.1,67.8c0.4,2.2,3,3.1,4.9,3.1c1.7,0,4-0.6,4-2.7c0-1.7-1.8-2.2-3.2-2.5l-2.7-0.5
		c-2.5-0.5-4.8-1.7-4.8-4.6c0-3.4,3.1-4.8,6.2-4.8c2.9,0,5.7,1.1,6.5,4.1l-2.3,0.5c-0.6-1.8-2.3-2.6-4.2-2.6c-1.5,0-3.5,0.6-3.5,2.4
		c0,1.8,1.5,2.2,3,2.4l2.4,0.4c1.2,0.2,2.4,0.5,3.4,1.1c1.3,0.9,2,2.2,2,3.7c0,3.7-3.6,5.1-6.8,5.1c-3.2,0-6.4-1.3-7.2-4.7
		L190.1,67.8z"/>
	<path class="st4" d="M207.6,56.2v3.2h0.1c0.8-2,2.6-3.6,4.9-3.6c2.4,0,4.1,1.6,4.6,3.9c0.9-2.3,2.8-3.9,5.3-3.9
		c1.7,0,3.3,0.9,4.1,2.4c0.8,1.4,0.8,3.2,0.8,4.7v9.8h-2.5v-9.8c0-1.1,0.1-2.3-0.5-3.3c-0.6-1.1-1.6-1.7-2.7-1.7
		c-1.3,0-2.4,0.8-3.2,1.8c-0.9,1.3-0.9,2.5-0.9,4.1v8.9h-2.5V62.3c0-0.9-0.1-2-0.6-2.8c-0.6-1-1.6-1.6-2.7-1.6c-1.1,0-2.3,0.7-3,1.6
		c-0.8,1.1-1,2.4-1,3.8v9.4h-2.5V56.2H207.6z"/>
	<path class="st4" d="M243.2,67.8c0.4,2.2,3,3.1,5,3.1c1.7,0,4-0.6,4-2.7c0-1.7-1.8-2.2-3.2-2.5l-2.7-0.5c-2.5-0.5-4.8-1.7-4.8-4.6
		c0-3.4,3.1-4.8,6.2-4.8c3,0,5.7,1.1,6.5,4.1l-2.3,0.5c-0.6-1.8-2.3-2.6-4.2-2.6c-1.5,0-3.5,0.6-3.5,2.4c0,1.8,1.5,2.2,2.9,2.4
		l2.4,0.4c1.2,0.2,2.4,0.5,3.4,1.1c1.3,0.9,2,2.2,2,3.7c0,3.7-3.6,5.1-6.8,5.1c-3.2,0-6.4-1.3-7.2-4.7L243.2,67.8z"/>
	<path class="st4" d="M265.1,55.8c4.8,0,7.2,4.2,7.2,8.5c0,4.6-2.6,8.6-7.6,8.6c-4.9,0-7.1-4.3-7.1-8.7
		C257.5,59.8,260.1,55.8,265.1,55.8 M261.3,68.8c0.7,1.3,2.1,2.1,3.6,2.1c1.7,0,3-0.9,3.8-2.4c0.7-1.3,0.8-2.8,0.8-4.2
		c0-1.6-0.2-3.2-1-4.5c-0.8-1.2-2.1-1.9-3.6-1.9c-1.6,0-3,0.9-3.7,2.3c-0.6,1.2-0.8,2.8-0.8,4.1C260.4,65.8,260.6,67.5,261.3,68.8"
		/>
	<rect x="276.3" y="50.5" class="st4" width="2.5" height="22.2"/>
	<path class="st4" d="M296.6,72.7h-2.3v-3.3h-0.1c-0.8,2-2.8,3.6-5,3.6c-1.6,0-3.2-0.6-4.2-1.8c-1.1-1.4-1.3-3.2-1.3-4.9v-10h2.5v10
		c0,0.9,0.1,2.2,0.6,3c0.5,0.9,1.6,1.6,2.6,1.6c1.4,0,2.5-0.6,3.4-1.7c1-1.2,1.3-2.6,1.3-4.1v-8.7h2.5V72.7z"/>
	<path class="st4" d="M309,72.8l-2.4,0.2c-3.6,0-4.7-2.1-4.7-5.4v-9.5H299v-2h2.9V52l2.5-0.3v4.3h3.7v2h-3.7v9.9
		c0,1.9,0.5,2.9,2.6,2.9l1.9-0.2V72.8z"/>
	<path class="st4" d="M314.6,53.3h-2.8v-2.8h2.8V53.3z M314.4,72.7h-2.5V56.2h2.5V72.7z"/>
	<path class="st4" d="M326,55.8c4.8,0,7.2,4.2,7.2,8.5c0,4.6-2.7,8.6-7.6,8.6c-4.9,0-7.1-4.3-7.1-8.7C318.4,59.8,321,55.8,326,55.8
		 M322.2,68.8c0.7,1.3,2.1,2.1,3.6,2.1c1.7,0,3-0.9,3.8-2.4c0.7-1.3,0.8-2.8,0.8-4.2c0-1.6-0.2-3.2-1-4.5c-0.8-1.2-2.1-1.9-3.6-1.9
		c-1.6,0-3,0.9-3.7,2.3c-0.6,1.2-0.8,2.8-0.8,4.1C321.2,65.8,321.5,67.5,322.2,68.8"/>
	<path class="st4" d="M339.2,59.3L339.2,59.3c1-2,2.8-3.5,5.2-3.5c2,0,3.6,0.8,4.7,2.6c0.8,1.4,0.8,3.6,0.8,5.2v9.1h-2.5V62.5
		c0-1,0-2.2-0.4-3c-0.6-0.9-1.7-1.5-2.8-1.5c-1.3,0-2.5,0.6-3.4,1.7c-1.1,1.3-1.3,2.8-1.3,4.4v8.6h-2.5V56.2h2.4V59.3z"/>
	<path class="st4" d="M355.9,67.8c0.4,2.2,3,3.1,4.9,3.1c1.8,0,4-0.6,4-2.7c0-1.7-1.8-2.2-3.2-2.5l-2.7-0.5
		c-2.5-0.5-4.8-1.7-4.8-4.6c0-3.4,3.1-4.8,6.2-4.8c2.9,0,5.7,1.1,6.5,4.1l-2.3,0.5c-0.7-1.8-2.3-2.6-4.2-2.6c-1.5,0-3.5,0.6-3.5,2.4
		c0,1.8,1.5,2.2,2.9,2.4l2.4,0.4c1.2,0.2,2.4,0.5,3.4,1.1c1.3,0.9,2,2.2,2,3.7c0,3.7-3.6,5.1-6.8,5.1c-3.2,0-6.4-1.3-7.2-4.7
		L355.9,67.8z"/>
	<line class="st5" x1="296.1" y1="41.8" x2="296.1" y2="3.8"/>
	<path class="st3" d="M382.6,37.5c6.5,0,9.1-2.2,9.1-8V7.7H386v21.1c0,3-0.5,3.9-3.8,3.9h-4.6v-25h-5.8v29.8H382.6z"/>
	<polygon class="st3" points="357.3,37.5 351.5,37.5 351.5,7.7 357.3,7.7 357.3,32.7 	"/>
	<polygon class="st3" points="367.4,37.5 361.6,37.5 361.6,7.7 367.4,7.7 367.4,32.7 	"/>
	<path class="st3" d="M348,25.3c0,2.9-1.2,3.6-4,3.6h-9.6c0.1,3.6,1.2,4.1,4.9,4.1h7.3v4.6h-8c-7.3,0-10.7-3.7-10.7-10.9
		c0-7.1,3.5-10.9,10.8-10.9c5.6,0,9.4,3.4,9.4,8.7V25.3z M342.5,24.3c0-3.4-1.8-4.1-4-4.1c-2.5,0-4.1,0.6-4.2,4.1H342.5z"/>
	<path class="st3" d="M407.8,33c2.1,0,3.1-0.6,3.1-2.1c0-1.5-1-2.1-3.1-2.1h-4.9c-5.3,0-7.5-1.1-7.5-6.1c0-4.7,2.4-6.8,7.7-6.8h12.3
		v4.5h-10.1c-2.6,0-4,0.2-4,2c0,1.4,0.9,1.9,2.7,1.9h5.2c4.8,0,7.3,2.3,7.3,6.5c0,4.1-2.5,6.8-5.9,6.8h-14.8V33H407.8z"/>
	<path class="st3" d="M312.6,15.6V7.7h5.7v7.9h6.1v4.3h-6.1v8.8c0,3,0.8,4.3,3.7,4.3h2.3v4.3h-5.2c-4.2,0-6.5-2.3-6.5-6.8V19.9V15.6
		z"/>
</g>
</svg>
