<?xml version="1.0" encoding="utf-8"?>
<!-- Generator: Adobe Illustrator 23.0.1, SVG Export Plug-In . SVG Version: 6.00 Build 0)  -->
<svg version="1.1" id="Layer_2" xmlns="http://www.w3.org/2000/svg" xmlns:xlink="http://www.w3.org/1999/xlink" x="0px" y="0px"
	 viewBox="0 0 406 405.3" style="enable-background:new 0 0 406 405.3;" xml:space="preserve">
<style type="text/css">
	.st0{display:none;clip-path:url(#SVGID_2_);fill:#F18A00;}
	.st1{clip-path:url(#SVGID_2_);fill:#F18A00;}
	.st2{fill:#FFFFFF;}
</style>
<g>
	<g>
		<defs>
			<rect id="SVGID_1_" x="-159" y="2.8" width="1802.9" height="531.1"/>
		</defs>
		<clipPath id="SVGID_2_">
			<use xlink:href="#SVGID_1_"  style="overflow:visible;"/>
		</clipPath>
		<path class="st0" d="M1397.8,290c1.3,8.2,10.9,11.3,18.1,11.3c6.4,0,14.6-2.3,14.6-10c0-6.4-6.5-8.2-11.7-9.1l-9.9-1.8
			c-9.2-1.8-17.7-6.1-17.7-16.7c0-12.5,11.5-17.7,22.6-17.7c10.8,0,20.9,4,23.8,15.2l-8.5,1.8c-2.4-6.7-8.6-9.5-15.5-9.5
			c-5.4,0-12.8,2.1-12.8,8.8c0,6.5,5.4,8,10.8,8.8l8.8,1.5c4.4,0.8,8.9,1.7,12.6,4.2c4.7,3.2,7.2,8.2,7.2,13.7
			c0,13.7-13.3,18.6-25,18.6c-11.8,0-23.4-4.9-26.5-17.2L1397.8,290z"/>
		<path class="st1" d="M404.9,203.5c0,110.9-89.9,200.9-200.9,200.9C93.1,404.4,3.2,314.5,3.2,203.5C3.2,92.6,93.1,2.7,204.1,2.7
			C315,2.7,404.9,92.6,404.9,203.5"/>
	</g>
	<path class="st2" d="M297.5,237.2c-34.7,0.8-56.4-19.2-66.2-32.6c-0.3-0.4-0.5-0.7-0.7-1c0.3-0.4,0.4-0.7,0.8-1.1
		c9.7-13.5,31.5-33.4,66.2-32.6c16.6,1.5,29.1-4.5,32.9-18.8c3.9-14.3-4.5-29-18.7-32.9c-14.3-3.9-27,3.3-33,18.8
		c-6.8,17.9-32.9,36.4-62.4,40.7c-13.1-41.2,5.4-59.8,10.1-77.8c4.6-12,2-22-4.8-30.4c-4.1-5.1-10.3-7.3-16.5-7.8v-0.1
		c-0.5,0-1,0-1.5,0.1h-0.8v0.1c-6.1,0.5-12.3,2.7-16.4,7.8c-6.8,8.4-9.5,18.4-4.8,30.3c4.6,17.9,23.2,36.5,10.1,77.8
		c-29.5-4.4-55.5-22.8-62.3-40.7c-5.9-15.6-18.7-22.7-32.9-18.8C82.3,122,73.9,136.8,77.8,151c3.9,14.3,16.3,20.4,32.9,18.8
		c34.6-0.8,56.4,19.2,66.1,32.7c0.3,0.4,0.5,0.7,0.7,1c-0.2,0.4-0.5,0.7-0.7,1.1c-9.7,13.5-31.5,33.4-66.2,32.6
		c-16.6-1.6-29,4.5-32.9,18.8c-3.9,14.3,4.6,29,18.8,32.9c14.3,3.9,27-3.3,33-18.8c6.7-18,32.8-36.4,62.3-40.7
		c13.1,41.2-5.4,59.8-10.1,77.8c-4.6,12-2,22,4.8,30.4c4,5.1,10.3,7.3,16.4,7.8v0.1c0.5,0,1,0,1.6-0.1c0.3,0,0.5,0,0.8,0v-0.1
		c6.1-0.5,12.4-2.7,16.5-7.8c6.8-8.4,9.5-18.4,4.8-30.4c-4.6-17.9-23.2-36.5-10.1-77.8c29.5,4.3,55.5,22.8,62.3,40.7
		c5.9,15.6,18.6,22.7,32.9,18.8c14.2-3.9,22.7-18.6,18.8-32.9C326.5,241.8,314.1,235.7,297.5,237.2"/>
</g>
</svg>
